<?xml version="1.0" encoding="utf-8"?>
<!-- Generator: Adobe Illustrator 22.1.0, SVG Export Plug-In . SVG Version: 6.00 Build 0)  -->
<svg version="1.1" id="图层_1" xmlns="http://www.w3.org/2000/svg" xmlns:xlink="http://www.w3.org/1999/xlink" x="0px" y="0px"
	 viewBox="0 0 60 15" style="enable-background:new 0 0 60 15;" xml:space="preserve">
<style type="text/css">
	.st0{filter:url(#Adobe_OpacityMaskFilter);}
	.st1{fill:#FFFFFF;}
	.st2{mask:url(#mask-2_1_);}
</style>
<title>logo</title>
<desc>Created with Sketch.</desc>
<g id="Clip-2">
</g>
<defs>
	<filter id="Adobe_OpacityMaskFilter" filterUnits="userSpaceOnUse" x="0" y="0" width="59.7" height="15">
		<feColorMatrix  type="matrix" values="1 0 0 0 0  0 1 0 0 0  0 0 1 0 0  0 0 0 1 0"/>
	</filter>
</defs>
<mask maskUnits="userSpaceOnUse" x="0" y="0" width="59.7" height="15" id="mask-2_1_">
	<g class="st0">
		<polygon id="path-1_1_" class="st1" points="0,0 59.7,0 59.7,15 0,15 		"/>
	</g>
</mask>
<path id="Fill-1" class="st2" d="M55.5,1.7c0-0.1,0-0.2-0.1-0.3c-0.1-0.1-0.1-0.1-0.3-0.2c-0.1-0.1-0.2-0.1-0.4-0.1
	c-0.1,0-0.3,0-0.4,0h-0.1V0h4.9v1.1H59c-0.2,0-0.4,0-0.6,0.1c-0.2,0-0.3,0.1-0.5,0.3c-0.2,0.1-0.3,0.3-0.5,0.5
	c-0.2,0.2-0.3,0.4-0.6,0.7l-3,4.2l3.9,6c0.3,0.4,0.5,0.7,0.8,0.9c0.3,0.1,0.6,0.2,0.8,0.2h0.3V15h-6.9v-1.1h0.1
	c0.8,0,1.3-0.2,1.3-0.7c0-0.1,0-0.2,0-0.2c0-0.1-0.1-0.2-0.1-0.3c-0.1-0.1-0.1-0.2-0.2-0.4c-0.1-0.1-0.2-0.3-0.4-0.6l-1.9-2.9
	l-2.3,3.1c-0.1,0.2-0.3,0.4-0.4,0.6c-0.1,0.2-0.2,0.5-0.2,0.7c0,0.2,0.1,0.4,0.3,0.5c0.2,0.1,0.5,0.2,1,0.2h0.1V15h-5.3v-1.1h0.1
	c0.3,0,0.5,0,0.7-0.1c0.2-0.1,0.4-0.2,0.5-0.3c0.2-0.1,0.3-0.3,0.5-0.5c0.2-0.2,0.3-0.4,0.5-0.6l3.7-4.8l-3.5-5.4
	C47.2,2,47,1.9,46.9,1.7c-0.1-0.1-0.2-0.3-0.4-0.3c-0.1-0.1-0.3-0.2-0.5-0.2c-0.2,0-0.4-0.1-0.6-0.1h-0.3V0h7v1.1h-0.1
	c-0.2,0-0.4,0-0.6,0s-0.3,0.1-0.4,0.1c-0.1,0.1-0.2,0.1-0.2,0.2c0,0.1-0.1,0.2-0.1,0.2c0,0.1,0.1,0.3,0.2,0.5
	c0.1,0.2,0.2,0.5,0.4,0.7l1.7,2.6L55,3c0.1-0.2,0.2-0.4,0.4-0.6C55.5,2.1,55.5,1.9,55.5,1.7z M43.7,15H31.4v-1.1h0.9
	c0.2,0,0.3,0,0.4,0c0.1,0,0.2-0.1,0.3-0.2c0.1-0.1,0.2-0.2,0.2-0.4c0-0.2,0.1-0.4,0.1-0.7v-10c0-0.3,0-0.5-0.1-0.7
	c-0.1-0.2-0.1-0.3-0.2-0.4c-0.1-0.1-0.2-0.2-0.3-0.2c-0.1,0-0.3,0-0.4,0h-0.9V0h7.2v1.1h-0.9c-0.1,0-0.3,0-0.4,0
	c-0.1,0-0.3,0.1-0.3,0.2c-0.1,0.1-0.2,0.2-0.2,0.4c-0.1,0.2-0.1,0.4-0.1,0.7v11.3h3.9c0.5,0,0.9-0.2,1.2-0.5
	c0.3-0.3,0.5-0.8,0.6-1.4l0.3-1.6h1.2L43.7,15z M30.2,15H23v-1.1h0.9c0.2,0,0.3,0,0.4,0c0.1,0,0.2-0.1,0.3-0.2
	c0.1-0.1,0.2-0.2,0.2-0.4c0.1-0.2,0.1-0.4,0.1-0.7v-10c0-0.3,0-0.6-0.1-0.7c-0.1-0.2-0.1-0.3-0.2-0.4c-0.1-0.1-0.2-0.1-0.3-0.2
	c-0.1,0-0.3,0-0.4,0H23V0h7.2v1.1h-0.9c-0.1,0-0.3,0-0.4,0c-0.1,0-0.3,0.1-0.3,0.2c-0.1,0.1-0.2,0.2-0.2,0.4
	c-0.1,0.2-0.1,0.4-0.1,0.7v10c0,0.3,0,0.5,0.1,0.7c0,0.2,0.1,0.3,0.2,0.4c0.1,0.1,0.2,0.2,0.3,0.2c0.1,0,0.3,0,0.4,0h0.9V15z
	 M11.1,0.2h1.5l2.9,8c0.1,0.3,0.2,0.7,0.3,1c0.1,0.3,0.2,0.7,0.3,1c0.1,0.3,0.2,0.6,0.2,0.9c0.1,0.3,0.1,0.5,0.1,0.7
	c0.1-0.3,0.1-0.5,0.2-0.8c0.1-0.3,0.1-0.6,0.2-1c0.1-0.3,0.2-0.7,0.2-1c0.1-0.4,0.2-0.7,0.2-1l1.1-4.5c0-0.1,0-0.2,0.1-0.3
	c0-0.1,0-0.2,0.1-0.3c0-0.1,0-0.2,0-0.3c0-0.1,0-0.2,0-0.2c0-0.4-0.1-0.6-0.3-0.8c-0.2-0.1-0.6-0.2-1-0.2h-0.5V0h5.5v1.1H22
	c-0.2,0-0.4,0-0.5,0.1c-0.2,0-0.3,0.1-0.4,0.2c-0.1,0.1-0.2,0.3-0.3,0.5c-0.1,0.2-0.2,0.5-0.3,0.8L17.2,15h-2.4l-3.5-9.9l-3,9.9H5.6
	L1.8,2.2C1.7,2,1.6,1.8,1.5,1.7C1.5,1.5,1.4,1.4,1.2,1.3C1.1,1.3,1,1.2,0.8,1.2c-0.2,0-0.3,0-0.5,0H0V0h7v1.1H6.5
	c-0.4,0-0.7,0.1-0.9,0.2C5.4,1.5,5.3,1.8,5.3,2.1c0,0.1,0,0.3,0.1,0.5c0,0.2,0.1,0.4,0.2,0.6l1.4,4.8C7,8.4,7,8.7,7.1,9
	c0.1,0.3,0.2,0.6,0.3,0.9c0.1,0.3,0.1,0.6,0.2,0.9c0.1,0.3,0.1,0.6,0.1,0.8c0.1-0.5,0.2-0.9,0.3-1.3c0.1-0.4,0.2-0.8,0.3-1.2
	L11.1,0.2z"/>
</svg>
